<?xml version="1.0" encoding="utf-8"?>
<!-- Generator: Adobe Illustrator 26.0.2, SVG Export Plug-In . SVG Version: 6.00 Build 0)  -->
<svg version="1.1" id="Layer_1" xmlns="http://www.w3.org/2000/svg" xmlns:xlink="http://www.w3.org/1999/xlink" x="0px" y="0px"
	 viewBox="0 0 321.4 131.5" style="enable-background:new 0 0 321.4 131.5;" xml:space="preserve">
<style type="text/css">
	.st0{fill:#FFFFFF;stroke:#000000;stroke-width:0.5;stroke-miterlimit:10;}
	.st1{fill:#E30613;}
	.st2{fill:#FFFFFF;}
	.st3{fill:none;}
</style>
<g>
	<g>
		<path d="M40.4,22.7l1.8-0.8l-2.1-4.5c2.6-6.5,4.2-10.5,4.9-12c0.6-1.5,1-2.3,1.1-2.5L73.2,2c0-0.1-0.1,5.2-0.2,16
			s-0.3,21.7-0.5,32.7s-0.3,16.6-0.3,17H43.5c0.4-3.3,0.6-7.2,0.6-11.9l4.3-9.7l-2.9-1.2l-5.3,12.7h-2.3c-0.5-1.2-2.3-5.4-5.2-12.7
			l-2.9,1.2l4.3,9.7c0,4.7,0.2,8.6,0.6,11.9H4.8c0-0.3-0.1-5.9-0.2-16.8C4.5,40.1,4.3,29.3,4.2,18.7C4,8.1,3.9,2.8,3.9,2.9L32,2
			L40.4,22.7z"/>
		<path d="M183.8,67.7c-0.1,0-1.6-4.7-4.4-14c-2.8-9.4-5.8-19.5-9.1-30.4S164.9,5.6,164,3l31.6-1l4.1,26.1l4.2-25.2L235.6,2
			c-0.8,2.3-3.1,9.1-6.8,20.4s-7.1,21.7-10.2,31.1c-3.1,9.4-4.7,14.1-4.9,14.1L183.8,67.7L183.8,67.7z"/>
		<path d="M238.1,67.7l-1-64.8L269.2,2l-1,65.7H238.1z"/>
		<path d="M274.3,67.7l-1-64.8L321.4,2l-0.9,24.2l-15.7-1v6.7l9.1-1v8.6l-9.4-1v6.9l15.3-1.4v23.7H274.3z"/>
	</g>
	<path d="M132,74.1c-0.4-0.4-0.8-0.9-1-1.4l-31.1,0.6l0.8,54.1h35.7v-19.8l-12,1.2V103l7.4,0.9v-7.2l-7.2,0.8v-5.6l12.3,0.9l0.5-13
		c-1.4-1.4-2.7-2.9-4-4.3L132,74.1z"/>
	<polygon points="2.8,93 12,93 12.5,127.5 36.1,127.5 36.7,93 45.3,93 45.3,72.6 2.8,73.3 	"/>
	<polygon points="74.9,89.9 70.2,89.9 70.5,72.6 48.5,73.4 50,127.5 70.5,127.5 69.9,112.2 75.2,112.2 74.7,127.5 95.1,127.5 
		96.7,72.6 74.7,73.4 	"/>
	<polygon points="233.8,127.5 269.5,127.5 269.5,107.7 257.5,108.9 257.5,103.1 264.9,103.9 264.9,96.7 257.8,97.6 257.8,91.9 
		270.1,92.8 270.8,72.6 233,73.3 	"/>
	<polygon points="187.4,93 196.5,93 197.1,127.5 220.7,127.5 221.3,93 229.9,93 229.9,72.6 187.4,73.3 	"/>
	<path d="M179,72.6l-4.8,0.1c1.1,5.2-0.6,10.1-4.9,13.7c-3.7,3.1-8.8,4.7-14.4,4.7l0,0c-2.8-0.1-5.8-1.1-8.6-2.9l-7.6,39.3h20.6
		c0.5-2.5,1.1-5.8,1.7-10l9-0.9v1.7l-3.8,0.3l1.5,8.8h20.7L179,72.6z M174.3,105.3c-4.7,2.8-9.4,5.5-14.2,8.2
		c-0.1,0-0.1,0.1-0.2,0.1c-1.9,0.9-3,0.3-3-1.8c0-2.7,0-5.5,0-8.2s0-5.3,0-8c0-2.3,1.2-3.1,3.2-1.9c4.7,2.7,9.5,5.4,14.2,8.2
		C176.1,102.9,176.1,104.2,174.3,105.3z"/>
	<path d="M319.1,114.3l-12.2-6.9l0.6-1.5l7.2,3.8c3.7-3.8,5.5-9.3,5.5-16.6c0-7.8-2.1-13.3-6.4-16.6c-4.3-3.2-11-4.8-20.1-4.8
		c-5,0-11.6,0.6-19.7,1.8l0.8,54h23.6v-5.6l-6.4-6.8l1.1-1.2l5.2,5.6v-0.1l12.6,12.1l9.4-16.5L319.1,114.3z M295.8,112.1
		L295.8,112.1L295.8,112.1L295.8,112.1z M293.9,101.1c-0.1,0-0.1,0.1-0.2,0.1c-1.9,0.9-3,0.3-3-1.8c0-2.7,0-5.5,0-8.2s0-5.3,0-8
		c0-2.3,1.2-3.1,3.2-1.9c4.7,2.7,9.5,5.4,14.2,8.2c1.8,1.1,1.8,2.4,0,3.5C303.3,95.7,298.6,98.4,293.9,101.1z"/>
</g>
<g>
	<path class="st0" d="M37.8,21l1.8-0.8l-2.1-4.5c2.6-6.5,4.2-10.5,4.9-12c0.6-1.5,1-2.3,1.1-2.5l27.2-0.9c0-0.1-0.1,5.2-0.2,16
		C70.3,27.1,70.2,38,70,49s-0.3,16.6-0.3,17H41c0.4-3.3,0.6-7.2,0.6-11.9l4.3-9.7L43,43.2l-5.3,12.7h-2.3c-0.5-1.2-2.3-5.4-5.2-12.7
		l-2.9,1.2l4.3,9.7c0,4.7,0.2,8.6,0.6,11.9h-30c0-0.3-0.1-5.9-0.2-16.8C1.9,38.3,1.8,27.6,1.6,17S1.3,1.1,1.3,1.2l28.1-0.9L37.8,21z
		"/>
	<path class="st0" d="M181.2,66c-0.1,0-1.6-4.7-4.4-14c-2.8-9.4-5.8-19.5-9.1-30.4s-5.4-17.7-6.3-20.3l31.6-1l4.1,26.1l4.2-25.2
		L233,0.3c-0.8,2.3-3.1,9.1-6.8,20.4s-7.1,21.7-10.2,31.1c-3.1,9.4-4.7,14.1-4.9,14.1L181.2,66L181.2,66z"/>
	<path class="st0" d="M235.5,66l-1-64.8l32.1-0.9l-1,65.7C265.6,66,235.5,66,235.5,66z"/>
	<path class="st0" d="M271.7,66l-1-64.8l48.1-0.9l-0.9,24.2l-15.7-1v6.7l9.1-1v8.6l-9.4-1v6.9l15.3-1.4V66H271.7z"/>
</g>
<path class="st1" d="M76.3,31c-0.1-6.2,0-12.3,1.7-18.3c0-0.1,0-0.2,0-0.3c1.3-5.7,4.6-9.2,10.6-10c5.8-0.8,11.6-1.6,17.5-1.8
	c4.7-0.1,9.3-0.5,14-0.4c7.5,0.2,14.9,0.6,22.4,1.1c3.2,0.2,6.4,1,9.6,1.6c3.7,0.7,6.3,2.9,7.5,6.4c1,2.9,1.7,5.9,2.2,8.9
	c1,6.6,0.8,13.2,0.5,19.9c-0.1,4.4-0.8,8.7-2.1,12.9c-0.4,1.3-0.8,1.8-2.3,1.5c-1.2-0.2-2.5,0.3-3.8,0.4c-0.7,0.1-1.4,0.1-2.1,0
	c-0.6-0.1-1.3-0.4-1.9-0.4c-2.2,0-2.2,0-2.9-2.1c-0.5-1.5-0.9-3-1.5-4.5c-1.3-3.3-4.5-5-7.6-3.9c-3.4,1.2-5,4.2-3.9,7.8
	c1,3.2,2,6.4,3,9.6c0.5,1.5,0.4,1.8-1,1.8c-8.6,0.1-17.2,1.2-25.7,0.2c-1.6-0.2-3.2,0-4.8-0.1c-6.3-0.3-12.6-0.9-18.9-2.2
	c-3.9-0.8-6.4-3.1-7.8-6.8c-1.7-4.4-2.3-9-2.6-13.7C76.2,36.3,76.3,33.7,76.3,31z"/>
<path class="st2" d="M109.1,31.1c0,3.8,0,7.7,0,11.5c0,2.9,1.6,3.8,4.2,2.5c0.1,0,0.2-0.1,0.3-0.1c6.6-3.8,13.3-7.6,19.9-11.5
	c2.6-1.5,2.6-3.4,0-4.9c-6.6-3.9-13.2-7.7-19.9-11.5c-2.8-1.6-4.4-0.6-4.5,2.7C109.1,23.7,109.1,27.4,109.1,31.1z"/>
<path class="st1" d="M155.1,87.4c-3-0.1-6.8-1.7-9.9-4.6c-3.9-3.7-7.6-7.7-11.2-11.7c-1.6-1.8-1.4-4,0.2-5.5
	c1.2-1.1,2.5-1.2,4.1-0.3c1,0.6,2,1.3,3,1.9c-0.3-1.2-0.5-2.5-0.9-3.7c-1.4-4.3-2.9-8.7-4.2-13c-0.3-1-0.6-2-0.5-3
	c0.2-2.1,1.8-3.6,3.9-3.8c1.9-0.2,3.6,0.7,4.4,2.7c0.8,2.1,1.5,4.2,2.2,6.3c0.2,0.6,0.4,1.2,0.6,1.9c0.1,0.7,0.3,1,1.1,0.6
	c1.7-0.9,3.3-1,5,0.1c0.3,0.2,1,0,1.4-0.2c1.5-1.1,3.1-1.3,4.7-0.3c0.7,0.5,1.3,0.3,2,0c3.4-1.6,5.7-0.6,6.9,3
	c1.3,4.1,2.6,8.1,3.9,12.2c1.6,5,0.2,9.7-3.8,13.1C164.8,85.7,160.4,87.4,155.1,87.4z"/>
<path class="st2" d="M156.2,85c4.8-0.2,9-1.8,12-5.7c1.7-2.2,2.4-4.7,1.6-7.4c-1.4-4.5-2.9-9.1-4.3-13.6c-0.1-0.4-0.4-0.9-0.7-1.2
	c-0.5-0.7-1.5-0.9-2.3-0.4c-0.6,0.4-1,1-1.1,1.7c-0.1,0.5,0.3,1,0.4,1.6c0.3,0.9,0.5,1.8,0.7,2.7c0,0.3-0.3,1-0.6,1.1
	c-0.5,0-1-0.1-1.4-0.5c-0.3-0.3-0.4-0.8-0.5-1.3c-0.4-1.1-0.7-2.3-1.1-3.4c-0.6-1.7-1.4-2.3-2.6-2c-1.3,0.4-1.7,1.5-1.2,3.1
	c0.3,1.1,0.7,2.1,0.9,3.2c0.1,0.4-0.5,1-0.9,1.2c-0.2,0.1-0.9-0.2-1.1-0.5c-0.4-0.5-0.5-1.2-0.7-1.8c-0.4-1.1-0.7-2.1-1.1-3.2
	c-0.6-1.6-1.5-2.1-2.7-1.7c-1,0.3-1.4,1.2-1.1,2.8c0.2,0.9,0.5,1.8,0.8,2.7s0.5,1.8-0.5,2.1c-1.1,0.4-1.4-0.5-1.7-1.4
	c-0.2-0.5-0.4-1.1-0.5-1.6c-0.9-2.9-1.9-5.9-2.8-8.8c-0.6-1.9-1.1-3.7-1.9-5.6c-0.4-1.1-1.5-1.6-2.5-1.3c-1.1,0.4-1.6,1.3-1.3,2.7
	c0.1,0.5,0.3,1.1,0.5,1.6c1.8,5.7,3.7,11.4,5.5,17c0.2,0.5,0.5,1.1,0.4,1.6c-0.1,0.7-0.2,1.6-0.7,1.9s-1.4,0.1-2-0.2
	c-0.8-0.4-1.4-1.2-2.1-1.8c-0.6-0.5-1.2-1.2-2-1.5c-0.7-0.2-1.4-0.2-2,0.1c-0.3,0.2-0.1,1.2,0,1.8c0.1,0.4,0.3,0.7,0.6,0.9
	c3.7,3.8,7.4,7.7,11.3,11.3C149.9,83.8,152.9,84.9,156.2,85z"/>
<polygon class="st3" points="293.2,110.4 293.2,110.3 293.1,110.4 "/>
<path class="st0" d="M129.5,72.4c-0.4-0.4-0.8-0.9-1-1.4l-31.1,0.6l0.8,54.1h35.7v-19.8l-12,1.2v-5.8l7.4,0.9V95l-7.2,0.8v-5.6
	l12.3,0.9l0.5-13c-1.4-1.4-2.7-2.9-4-4.3L129.5,72.4z"/>
<polygon class="st0" points="0.2,91.2 9.4,91.2 9.9,125.7 33.6,125.7 34.1,91.2 42.7,91.2 42.7,70.8 0.2,71.6 "/>
<polygon class="st0" points="72.3,88.2 67.7,88.2 67.9,70.8 45.9,71.7 47.5,125.7 67.9,125.7 67.3,110.4 72.7,110.4 72.1,125.7 
	92.5,125.7 94.1,70.8 72.1,71.7 "/>
<polygon class="st0" points="231.2,125.7 266.9,125.7 266.9,105.9 254.9,107.1 254.9,101.4 262.3,102.2 262.3,95 255.2,95.8 
	255.2,90.2 267.5,91.1 268.2,70.8 230.5,71.6 "/>
<polygon class="st0" points="184.8,91.2 194,91.2 194.5,125.7 218.1,125.7 218.7,91.2 227.3,91.2 227.3,70.8 184.8,71.6 "/>
<path class="st0" d="M316.5,112.6l-12.2-6.9l0.6-1.5l7.2,3.8c3.7-3.8,5.5-9.3,5.5-16.6c0-7.8-2.1-13.3-6.4-16.6
	c-4.3-3.2-11-4.8-20.1-4.8c-5,0-11.6,0.6-19.7,1.8l0.8,54h23.6v-5.6l-6.4-6.8l1.1-1.2l5.2,5.6v-0.1l12.6,12.1l9.4-16.5L316.5,112.6z
	 M293.2,110.4L293.2,110.4L293.2,110.4L293.2,110.4z M291.3,99.4c-0.1,0-0.1,0.1-0.2,0.1c-1.9,0.9-3,0.3-3-1.8c0-2.7,0-5.5,0-8.2
	s0-5.3,0-8c0-2.3,1.2-3.1,3.2-1.9c4.7,2.7,9.5,5.4,14.2,8.2c1.8,1.1,1.8,2.4,0,3.5C300.7,94,296,96.7,291.3,99.4z"/>
<path class="st0" d="M176.4,70.8l-2.4,0.1c1.1,5.2-0.6,10.1-4.8,13.7c-3.6,3.1-8.6,4.7-14.1,4.7l0,0c-0.3,0-0.5,0-0.8-0.1
	c-0.6,0-1.2,0.1-1.8,0.1l0,0c-2.8-0.1-5.8-1.1-8.6-2.9l-7.6,39.3h20.6c0.5-2.5,1.1-5.8,1.7-10l9-0.9v1.7l-3.8,0.3l1.5,8.8H186
	L176.4,70.8z M171.7,103.6c-4.7,2.8-9.4,5.5-14.2,8.2c-0.1,0-0.1,0.1-0.2,0.1c-1.9,0.9-3,0.3-3-1.8c0-2.7,0-5.5,0-8.2s0-5.3,0-8
	c0-2.3,1.2-3.1,3.2-1.9c4.7,2.7,9.5,5.4,14.2,8.2C173.5,101.2,173.5,102.5,171.7,103.6z"/>
</svg>
