<?xml version="1.0" encoding="UTF-8"?><svg id="Layer_1" xmlns="http://www.w3.org/2000/svg" viewBox="0 0 660.48 431.99"><defs><style>.cls-1{fill:#6dac46;}.cls-2{fill:#ce3929;}.cls-2,.cls-3,.cls-4,.cls-5,.cls-6,.cls-7,.cls-8,.cls-9{fill-rule:evenodd;}.cls-10{fill:#87c540;}.cls-11{fill:#fce069;}.cls-3{fill:#25b8eb;}.cls-3,.cls-12,.cls-13,.cls-5,.cls-7,.cls-8,.cls-9{stroke-miterlimit:10;}.cls-3,.cls-5,.cls-7,.cls-8,.cls-9{stroke:#010101;stroke-width:.25px;}.cls-14{fill:#242423;}.cls-15{fill:#222;}.cls-16{fill:#f58220;}.cls-4{fill:#faa51a;}.cls-17{fill:#fccb40;}.cls-18{font-size:6.09px;}.cls-18,.cls-19{fill:#231f20;font-family:FbSpacer-Regular, FbSpacer;}.cls-20{fill:#414238;}.cls-21{fill:#c3bfbf;}.cls-12{fill:#f6e7e1;stroke:#be1e2d;}.cls-22{fill:#7253a2;}.cls-23{fill:#1881c4;}.cls-24{fill:#45aae0;}.cls-25{fill:#242424;}.cls-26{fill:#eeac38;}.cls-13{fill:#e7f6fd;stroke:#2e3192;}.cls-27{fill:#f1f2f2;}.cls-28{fill:#4c6bb3;}.cls-5{fill:#9f59a3;}.cls-29{fill:#fec24b;}.cls-6{fill:#faa61d;}.cls-30{fill:#599642;}.cls-31{fill:#f3bd63;}.cls-7{fill:#ed1b5d;}.cls-19{font-size:14px;}.cls-8{fill:#67c9cd;}.cls-32{fill:#70cff0;}.cls-33{fill:#010101;}.cls-9{fill:#fff;}</style></defs><polygon class="cls-27" points="285.95 431.99 245.74 362.35 165.07 362.35 124.87 292.72 44.3 292.72 0 216 44.3 139.27 124.87 139.27 165.07 69.64 245.74 69.64 285.95 0 374.54 0 414.74 69.64 495.41 69.64 535.62 139.27 616.19 139.27 660.48 216 616.19 292.72 535.62 292.72 495.41 362.35 414.74 362.36 374.54 431.99 285.95 431.99"/><g><g><polygon class="cls-13" points="245.48 83.81 173.25 83.81 137.14 146.36 173.25 208.91 245.48 208.91 281.59 146.36 245.48 83.81"/><text class="cls-19" transform="translate(192.92 190.4)"><tspan x="0" y="0">Axios</tspan></text><g><path class="cls-25" d="M162.76,127.94c.11-.01,.23-.03,.34-.03,2.26,0,4.52,0,6.78,0,.13,0,.26,.01,.4,.02,3.31,7.49,6.61,14.97,9.96,22.53l6.05-8.86c-3.13-4.55-6.25-9.09-9.41-13.7,.16-.02,.26-.04,.36-.04,2.64,0,5.28,0,7.92,0,.31,0,.46,.12,.61,.37,1.44,2.45,2.88,4.89,4.33,7.34,.11,.18,.21,.36,.34,.57,.86-1.43,1.69-2.81,2.53-4.19,.76-1.26,1.52-2.51,2.28-3.77,.12-.2,.24-.31,.5-.31,2.72,0,5.44,0,8.26,0-1.55,2.34-3.11,4.6-4.65,6.87-1.54,2.29-3.1,4.57-4.66,6.86,3.08,4.76,6.14,9.5,9.25,14.31-.16,.01-.26,.03-.36,.03-2.33,0-4.65,0-6.98,0-.3,0-.46-.11-.62-.36-1.83-2.82-3.68-5.64-5.54-8.5l-5.84,8.83h-9.44c-.06-.13-.13-.27-.2-.42-2.75-6.2-5.5-12.39-8.25-18.59-.06-.13-.13-.26-.2-.39-.02-.08-.02-.16-.05-.23-.79-1.78-1.58-3.56-2.37-5.34-.44-1.01-.88-2.02-1.32-3.02Z"/><path class="cls-25" d="M214.75,142.02c-.06-7.04,4.84-12.96,11.47-14.58,1.34-.33,2.7-.5,4.08-.46,3.81,.13,7.18,1.39,10.01,3.99,2.48,2.28,4.02,5.1,4.52,8.42,.76,5.05-.62,9.49-4.24,13.14-2.2,2.21-4.88,3.59-7.97,4.1-5.16,.85-9.69-.48-13.48-4.09-2.12-2.02-3.45-4.53-4.06-7.4-.22-1.04-.33-2.1-.32-3.12Zm14.97-8.19c-.41,.06-1.03,.12-1.63,.26-3.17,.76-5.61,3.72-5.84,7.3-.11,1.72,.29,3.34,1.17,4.83,1.89,3.19,5.57,4.6,9,3.34,3.25-1.19,5.17-4.41,5.13-7.8-.02-1.32-.33-2.59-.98-3.76-1.44-2.61-3.64-4.03-6.86-4.17Z"/><path class="cls-25" d="M267.88,135.53l-6.28,1.77c-.08-.31-.13-.59-.22-.87-.46-1.51-1.37-2.58-2.97-2.95-1.1-.25-2.18-.2-3.17,.42-.59,.37-1,.88-1.17,1.57-.25,1.03,.21,2.03,1.16,2.49,.61,.3,1.29,.35,1.94,.48,1.44,.3,2.89,.53,4.31,.9,1.83,.48,3.47,1.34,4.78,2.74,1.31,1.39,1.99,3.04,2.09,4.94,.22,4.13-2.48,7.19-5.61,8.52-2.1,.89-4.29,1.1-6.54,.94-1.47-.11-2.91-.39-4.28-.97-3.1-1.32-5.02-3.65-5.9-6.88-.1-.38-.17-.76-.28-1.2l6.41-1.53c.1,.39,.17,.77,.29,1.14,.57,1.77,1.8,2.84,3.58,3.26,.96,.23,1.94,.29,2.91,.02,.97-.26,1.71-.79,2.05-1.78,.35-1.02,0-1.97-.9-2.49-.53-.31-1.12-.44-1.71-.56-1.49-.29-2.99-.54-4.46-.9-2.11-.52-3.97-1.5-5.37-3.21-.98-1.2-1.53-2.57-1.64-4.11-.28-3.84,1.45-6.59,4.68-8.49,1.73-1.01,3.62-1.45,5.62-1.46,1.85-.01,3.65,.25,5.34,1.03,2.82,1.3,4.52,3.51,5.19,6.53,.04,.2,.07,.41,.11,.63Z"/><path class="cls-14" d="M212.61,155.92h-6.94v-28h6.94v28Z"/><path class="cls-28" d="M162.76,127.94c.44,1.01,.88,2.02,1.32,3.02,.79,1.78,1.58,3.56,2.37,5.34,.03,.07,.04,.16,.05,.23-.22,.45-.45,.9-.65,1.36-1.6,3.61-3.19,7.22-4.79,10.83-1.06,2.39-2.11,4.77-3.18,7.19h-7.52l1.24-2.8c2.16-4.9,4.32-9.79,6.48-14.69,1.41-3.19,2.82-6.39,4.24-9.58,.14-.31,.3-.6,.45-.9Z"/></g></g><g><polygon class="cls-13" points="173.25 348.18 245.48 348.18 281.59 285.63 245.48 223.08 173.25 223.08 137.14 285.63 173.25 348.18"/><text class="cls-19" transform="translate(185.42 329.68)"><tspan x="0" y="0">Firebase</tspan></text><g><path class="cls-29" d="M181.02,299.67l.47-.66,22.29-42.29,.05-.45-9.82-18.45c-.82-1.55-3.14-1.15-3.41,.58l-9.57,61.28Z"/><path id="a" class="cls-6" d="M181.3,299.17l.36-.7,22.05-41.85-9.8-18.53c-.81-1.53-2.88-1.14-3.15,.57l-9.46,60.5Z"/><path id="a-2" class="cls-33" d="M181.3,299.17l.36-.7,22.05-41.85-9.8-18.53c-.81-1.53-2.88-1.14-3.15,.57l-9.46,60.5Z"/><path class="cls-31" d="M210.99,270.23l7.32-7.49-7.32-13.97c-.69-1.32-2.63-1.33-3.32,0l-3.91,7.46v.63l7.23,13.37h0Z"/><path id="c" class="cls-4" d="M210.86,269.92l7.11-7.28-7.11-13.54c-.68-1.29-2.32-1.42-2.98-.13l-3.93,7.57-.12,.39,7.03,13Z"/><path id="c-2" class="cls-33" d="M210.86,269.92l7.11-7.28-7.11-13.54c-.68-1.29-2.32-1.42-2.98-.13l-3.93,7.57-.12,.39,7.03,13Z"/><path class="cls-16" d="M181.02,299.67l.21-.21,.78-.32,28.52-28.41,.36-.98-7.11-13.56-22.76,43.48Z"/><path class="cls-11" d="M211.9,314l25.81-14.39-7.37-45.39c-.23-1.42-1.97-1.98-2.99-.96l-46.33,46.42,25.66,14.33c1.62,.91,3.6,.91,5.22,0"/><path class="cls-17" d="M237.48,299.48l-7.31-45.05c-.23-1.41-1.68-1.99-2.69-.98l-46.17,46.13,25.38,14.19c1.61,.9,3.57,.9,5.18,0l25.61-14.29h0Z"/><path class="cls-26" d="M211.9,313.57c-1.62,.9-3.6,.9-5.22,0l-25.46-14.12-.21,.22,25.66,14.33c1.62,.91,3.6,.91,5.22,0l25.81-14.39-.06-.39-25.75,14.36h0Z"/></g></g><g><polygon class="cls-13" points="487.23 83.81 415 83.81 378.89 146.36 415 208.91 487.23 208.91 523.34 146.36 487.23 83.81"/><text class="cls-19" transform="translate(410.61 190.4)"><tspan x="0" y="0">Material Icons</tspan></text><g><path class="cls-24" d="M440.99,141.36v11.69l20.25,11.69v-11.69l-20.25-11.69Z"/><g><path class="cls-24" d="M410.61,135.51v-35.08l30.38,17.54v11.69l-20.25-11.69v23.39l-10.13-5.85Z"/><path class="cls-23" d="M440.99,117.97l30.38-17.54v35.08l-20.25,11.69-10.13-5.85,20.25-11.69v-11.69l-20.25,11.69v-11.69Z"/><path class="cls-23" d="M461.24,164.74l30.38-17.54v-23.39l-10.13,5.85v11.69l-20.25,11.69v11.69Zm20.25-46.77v-11.69l10.13-5.85v11.69l-10.13,5.85Z"/></g></g></g><g><polygon class="cls-12" points="415 348.18 487.23 348.18 523.34 285.63 487.23 223.08 415 223.08 378.89 285.63 415 348.18"/><text class="cls-19" transform="translate(431.2 329.68)"><tspan x="0" y="0">NodeJs</tspan></text><g><path class="cls-10" d="M451.12,277.82c-.58,0-1.13,.12-1.63,.4l-15.67,9.05c-1.01,.58-1.63,1.69-1.63,2.86v18.07c0,1.17,.62,2.28,1.63,2.86l4.09,2.36c1.99,.98,2.72,.96,3.63,.96,2.94,0,4.62-1.79,4.62-4.89v-17.83c0-.25-.22-.43-.47-.43h-1.96c-.25,0-.47,.18-.47,.43v17.83c0,1.38-1.43,2.76-3.76,1.6l-4.26-2.5c-.15-.08-.27-.23-.27-.4v-18.07c0-.17,.11-.35,.27-.43l15.64-9.02c.14-.08,.32-.08,.47,0l15.64,9.02c.15,.09,.27,.26,.27,.43v18.07c0,.17-.09,.35-.23,.43l-15.67,9.02c-.13,.08-.32,.08-.47,0l-4.03-2.4c-.12-.07-.27-.07-.4,0-1.11,.63-1.32,.7-2.36,1.06-.26,.09-.65,.23,.13,.67l5.26,3.09c.5,.29,1.06,.44,1.63,.43,.57,0,1.13-.15,1.63-.43l15.67-9.02c1.01-.59,1.63-1.69,1.63-2.86v-18.07c0-1.17-.62-2.28-1.63-2.86l-15.67-9.05c-.49-.28-1.05-.4-1.63-.4h0Z"/><path class="cls-10" d="M455.31,290.73c-4.46,0-7.12,1.9-7.12,5.06,0,3.43,2.64,4.37,6.92,4.79,5.12,.5,5.52,1.25,5.52,2.26,0,1.75-1.39,2.5-4.69,2.5-4.14,0-5.05-1.03-5.36-3.09-.04-.22-.21-.4-.43-.4h-2.03c-.25,0-.47,.22-.47,.47,0,2.64,1.43,5.76,8.28,5.76,4.96,0,7.82-1.95,7.82-5.36s-2.31-4.29-7.12-4.92c-4.86-.64-5.32-.96-5.32-2.1,0-.94,.39-2.2,3.99-2.2,3.22,0,4.4,.69,4.89,2.86,.04,.2,.22,.37,.43,.37h2.03c.12,0,.25-.08,.33-.17,.09-.1,.15-.2,.13-.33-.31-3.73-2.8-5.49-7.82-5.49h0Z"/></g><g><path class="cls-20" d="M410.92,249.63c-.19,0-.37,.05-.54,.16l-10.05,6.62c-.37,.25-.61,.7-.6,1.19l.02,17.76c0,.25,.11,.48,.3,.6,.19,.13,.42,.13,.6,0l5.96-3.91c.38-.26,.62-.7,.62-1.2v-8.3c0-.5,.23-.95,.6-1.2l2.54-1.68c.18-.12,.39-.19,.6-.18,.21,0,.42,.06,.6,.18l2.54,1.68c.38,.25,.61,.7,.6,1.2v8.29c0,.49,.25,.94,.62,1.2l5.96,3.91c.19,.13,.42,.13,.6,0,.19-.12,.3-.35,.3-.6l.02-17.76c0-.49-.23-.95-.6-1.19l-10.05-6.62c-.17-.11-.35-.15-.54-.16h-.12Z"/><path class="cls-20" d="M475.17,236.99l-5.98-3.81c-.09-.06-.2-.07-.3-.07-.11,0-.21,.03-.3,.09-.19,.12-.3,.35-.3,.6v17.58c0,.17-.07,.33-.2,.41-.13,.09-.29,.09-.42,0l-2.52-1.65c-.37-.25-.83-.25-1.21,0l-10.05,6.62c-.38,.25-.6,.72-.6,1.22v13.24c0,.49,.23,.95,.6,1.19l10.05,6.62c.37,.25,.83,.25,1.21,0l10.05-6.62c.37-.25,.61-.7,.6-1.19v-33c0-.5-.24-.97-.62-1.22Zm-6.91,29.85c0,.12-.07,.24-.16,.3l-3.44,2.27c-.09,.06-.21,.06-.3,0l-3.44-2.27c-.09-.06-.16-.18-.16-.3v-4.55c0-.12,.07-.24,.16-.3l3.44-2.27s.09-.05,.14-.05h0c.05,0,.11,.01,.16,.05l3.44,2.27c.09,.06,.16,.18,.16,.3v4.55Z"/><path class="cls-10" d="M437.76,249.72c-.21,0-.42,.06-.6,.18l-10.05,6.59c-.38,.25-.6,.72-.6,1.22v13.24c0,.5,.23,.95,.6,1.2l10.05,6.62c.37,.25,.83,.25,1.21,0l10.05-6.62c.37-.25,.6-.7,.6-1.2v-13.24c0-.5-.23-.97-.6-1.22l-10.05-6.59c-.18-.12-.39-.18-.6-.18h0Z"/><g><path class="cls-20" d="M491.31,249.79c-.21,0-.42,.06-.6,.18l-10.05,6.62c-.37,.25-.61,.7-.6,1.19v13.24c0,.5,.25,.95,.62,1.2l9.97,6.48c.37,.24,.82,.26,1.19,.02l6.04-3.84c.19-.12,.32-.35,.32-.6,0-.25-.11-.48-.3-.6l-10.11-6.62c-.19-.12-.32-.37-.32-.62v-4.14c0-.25,.13-.47,.32-.6l3.14-2.07c.19-.12,.42-.12,.6,0l3.14,2.07c.19,.12,.3,.35,.3,.6v3.26c0,.25,.11,.47,.3,.6,.19,.12,.42,.12,.6,0l6.02-4c.37-.25,.6-.7,.6-1.2v-3.19c0-.49-.23-.95-.6-1.2l-9.99-6.62c-.18-.12-.39-.18-.6-.18h0Z"/><path class="cls-10" d="M491.29,261.53s-.08,0-.12,.02l-1.93,1.29c-.07,.05-.12,.13-.12,.23v2.53c0,.1,.05,.18,.12,.23l1.93,1.26c.07,.05,.15,.05,.22,0l1.93-1.26c.07-.05,.12-.13,.12-.23v-2.53c0-.1-.05-.18-.12-.23l-1.93-1.29s-.06-.02-.1-.02h0Z"/></g></g></g><g><polygon class="cls-13" points="366.35 14.17 294.13 14.17 258.02 76.72 294.13 139.27 366.35 139.27 402.47 76.72 366.35 14.17"/><text class="cls-19" transform="translate(314.5 120.77)"><tspan x="0" y="0">React</tspan></text><g><path class="cls-32" d="M374.69,62.32c0-5.89-7.38-11.47-18.68-14.93,2.61-11.53,1.45-20.69-3.66-23.63-1.18-.69-2.56-1.01-4.06-1.01v4.04c.83,0,1.5,.16,2.07,.47,2.46,1.41,3.53,6.8,2.7,13.72-.2,1.7-.53,3.5-.92,5.33-3.55-.87-7.43-1.54-11.51-1.98-2.45-3.35-4.98-6.4-7.54-9.06,5.91-5.49,11.45-8.5,15.22-8.5v-4.04c-4.98,0-11.51,3.55-18.1,9.71-6.6-6.12-13.12-9.64-18.1-9.64v4.04c3.75,0,9.31,2.99,15.22,8.44-2.54,2.66-5.07,5.69-7.48,9.04-4.1,.43-7.97,1.11-11.53,1.99-.42-1.81-.72-3.57-.94-5.26-.85-6.92,.2-12.3,2.65-13.74,.54-.33,1.25-.47,2.08-.47v-4.04c-1.52,0-2.9,.33-4.1,1.01-5.09,2.94-6.23,12.09-3.61,23.58-11.27,3.48-18.61,9.04-18.61,14.91s7.38,11.47,18.68,14.93c-2.61,11.53-1.45,20.69,3.66,23.63,1.18,.69,2.56,1.01,4.08,1.01,4.98,0,11.51-3.55,18.1-9.71,6.6,6.12,13.12,9.64,18.1,9.64,1.52,0,2.9-.33,4.1-1.01,5.09-2.94,6.23-12.09,3.61-23.58,11.24-3.46,18.57-9.04,18.57-14.91h0Zm-23.59-12.09c-.67,2.34-1.5,4.75-2.45,7.16-.74-1.45-1.52-2.9-2.37-4.35-.83-1.45-1.72-2.86-2.61-4.24,2.57,.38,5.06,.85,7.43,1.43h0Zm-8.3,19.3c-1.41,2.45-2.86,4.77-4.37,6.92-2.7,.24-5.44,.36-8.19,.36s-5.47-.13-8.15-.34c-1.5-2.16-2.97-4.46-4.39-6.89-1.38-2.37-2.63-4.78-3.77-7.21,1.12-2.43,2.39-4.86,3.75-7.23,1.41-2.45,2.86-4.77,4.37-6.92,2.7-.24,5.44-.36,8.19-.36s5.47,.13,8.15,.34c1.5,2.16,2.97,4.46,4.39,6.89,1.38,2.37,2.63,4.78,3.77,7.21-1.14,2.43-2.39,4.86-3.75,7.23h0Zm5.85-2.36c.98,2.43,1.81,4.86,2.5,7.21-2.37,.58-4.87,1.07-7.47,1.45,.89-1.4,1.78-2.83,2.61-4.29,.83-1.45,1.61-2.92,2.36-4.37h0Zm-18.37,19.34c-1.69-1.74-3.37-3.68-5.04-5.8,1.63,.07,3.3,.13,4.98,.13s3.39-.04,5.04-.13c-1.63,2.12-3.32,4.06-4.98,5.8Zm-13.48-10.67c-2.57-.38-5.06-.85-7.43-1.43,.67-2.34,1.5-4.75,2.45-7.16,.74,1.45,1.52,2.9,2.37,4.35s1.72,2.86,2.61,4.24Zm13.39-37.71c1.69,1.74,3.37,3.68,5.04,5.8-1.63-.07-3.3-.13-4.98-.13s-3.39,.04-5.04,.13c1.63-2.12,3.32-4.06,4.98-5.8Zm-13.41,10.67c-.89,1.4-1.78,2.83-2.61,4.29-.83,1.45-1.61,2.9-2.36,4.35-.98-2.43-1.81-4.86-2.5-7.21,2.37-.56,4.87-1.05,7.47-1.43h0Zm-16.4,22.69c-6.41-2.74-10.56-6.32-10.56-9.17s4.15-6.45,10.56-9.17c1.56-.67,3.26-1.27,5.02-1.83,1.03,3.55,2.39,7.25,4.08,11.04-1.67,3.77-3.01,7.45-4.02,10.98-1.79-.56-3.5-1.18-5.07-1.85h0Zm9.75,25.9c-2.46-1.41-3.53-6.8-2.7-13.72,.2-1.7,.53-3.5,.92-5.33,3.55,.87,7.43,1.54,11.51,1.98,2.45,3.35,4.98,6.4,7.54,9.06-5.91,5.49-11.45,8.5-15.22,8.5-.82-.02-1.5-.18-2.05-.49h0Zm42.98-13.81c.85,6.92-.2,12.3-2.65,13.74-.54,.33-1.25,.47-2.08,.47-3.75,0-9.31-2.99-15.22-8.44,2.54-2.66,5.07-5.69,7.48-9.04,4.1-.43,7.97-1.11,11.53-1.99,.42,1.83,.74,3.59,.94,5.27Zm6.98-12.09c-1.56,.67-3.26,1.27-5.02,1.83-1.03-3.55-2.39-7.25-4.08-11.04,1.67-3.77,3.01-7.45,4.02-10.98,1.79,.56,3.5,1.18,5.09,1.85,6.41,2.74,10.56,6.32,10.56,9.17-.02,2.85-4.17,6.45-10.58,9.17h0Z"/><circle class="cls-32" cx="330.22" cy="62.32" r="8.28"/></g></g><g><polygon class="cls-13" points="124.7 153.45 52.48 153.45 16.37 216 52.48 278.55 124.7 278.55 160.82 216 124.7 153.45"/><text class="cls-19" transform="translate(70.53 260.04)"><tspan x="0" y="0">Redux</tspan></text><path class="cls-22" d="M104.04,218.51c2.96-.31,5.2-2.85,5.1-5.91-.1-3.06-2.65-5.5-5.71-5.5h-.2c-3.16,.1-5.61,2.75-5.5,5.91,.1,1.53,.71,2.85,1.63,3.77-3.47,6.83-8.77,11.83-16.72,16-5.4,2.85-11.01,3.87-16.62,3.16-4.59-.61-8.15-2.65-10.4-6.01-3.26-4.99-3.57-10.4-.82-15.8,1.94-3.87,4.99-6.73,6.93-8.16-.41-1.33-1.02-3.57-1.33-5.2-14.78,10.7-13.25,25.18-8.77,32.01,3.36,5.1,10.19,8.26,17.74,8.26,2.04,0,4.08-.2,6.12-.71,13.05-2.55,22.94-10.3,28.54-21.82h0Zm17.94-12.64c-7.75-9.07-19.16-14.07-32.21-14.07h-1.63c-.92-1.83-2.85-3.06-4.99-3.06h-.2c-3.16,.1-5.61,2.75-5.5,5.91,.1,3.06,2.65,5.5,5.71,5.5h.2c2.24-.1,4.18-1.53,4.99-3.47h1.83c7.75,0,15.09,2.24,21.71,6.63,5.1,3.36,8.77,7.75,10.8,13.05,1.73,4.28,1.63,8.46-.2,12.03-2.85,5.4-7.64,8.36-13.97,8.36-4.08,0-7.95-1.22-9.99-2.14-1.12,1.02-3.16,2.65-4.59,3.67,4.38,2.04,8.87,3.16,13.15,3.16,9.79,0,17.02-5.4,19.78-10.81,2.96-5.91,2.75-16.11-4.89-24.77h0Zm-51.78,14.37c.1,3.06,2.65,5.5,5.71,5.5h.2c3.16-.1,5.61-2.75,5.5-5.91-.1-3.06-2.65-5.5-5.71-5.5h-.2c-.2,0-.51,0-.71,.1-4.18-6.93-5.91-14.48-5.3-22.63,.41-6.12,2.45-11.42,6.01-15.8,2.96-3.77,8.66-5.61,12.54-5.71,10.8-.2,15.39,13.25,15.7,18.65,1.33,.31,3.57,1.02,5.1,1.53-1.22-16.51-11.42-25.08-21.2-25.08-9.17,0-17.64,6.63-21,16.41-4.69,13.05-1.63,25.59,4.08,35.47-.51,.71-.82,1.83-.71,2.96h0Z"/></g><g><polygon class="cls-12" points="366.35 153.45 294.13 153.45 258.02 216 294.13 278.55 366.35 278.55 402.47 216 366.35 153.45"/><text class="cls-19" transform="translate(302.13 260.04)"><tspan x="0" y="0">MongoDB</tspan></text><g><text class="cls-18" transform="translate(339.24 210.56)"><tspan x="0" y="0"> </tspan></text><path class="cls-30" d="M330.07,190.13l1.46,2.75c.33,.51,.69,.96,1.11,1.38,1.23,1.22,2.38,2.52,3.44,3.89,2.48,3.26,4.16,6.88,5.35,10.79,.72,2.39,1.11,4.84,1.14,7.32,.12,7.42-2.42,13.78-7.55,19.07-.83,.84-1.73,1.61-2.69,2.3-.51,0-.75-.39-.96-.75-.38-.66-.63-1.39-.75-2.15-.18-.9-.3-1.79-.24-2.72v-.42c-.04-.09-.49-41.26-.31-41.47h0Z"/><path class="cls-1" d="M330.07,190.04c-.06-.12-.12-.03-.18,.03,.03,.6-.18,1.14-.51,1.65-.36,.51-.84,.9-1.32,1.32-2.66,2.3-4.75,5.08-6.43,8.19-2.23,4.19-3.38,8.67-3.7,13.39-.15,1.7,.54,7.71,1.08,9.45,1.46,4.6,4.1,8.46,7.5,11.81,.84,.81,1.73,1.55,2.66,2.27,.27,0,.3-.24,.36-.42,.12-.38,.21-.77,.27-1.17l.6-4.48-.33-42.04Z"/><path class="cls-21" d="M331.53,239.46c.06-.69,.39-1.26,.75-1.82-.36-.15-.63-.45-.84-.78-.18-.31-.33-.64-.45-.99-.42-1.26-.51-2.57-.63-3.86v-.78c-.15,.12-.18,1.14-.18,1.29-.09,1.36-.27,2.7-.54,4.04-.09,.54-.15,1.08-.48,1.55,0,.06,0,.12,.03,.21,.54,1.58,.69,3.2,.78,4.84v.6c0,.72-.03,.57,.57,.81,.24,.09,.51,.12,.75,.3,.18,0,.21-.15,.21-.27l-.09-.99v-2.75c-.03-.48,.06-.96,.12-1.41h0Z"/></g><path class="cls-2" d="M370.9,175.29c0-.73,.52-1.29,1.19-1.29s1.18,.55,1.18,1.29-.52,1.29-1.18,1.29-1.19-.55-1.19-1.29Zm1.19,1.55c.8,0,1.48-.66,1.48-1.55s-.68-1.54-1.48-1.54-1.48,.66-1.48,1.54,.68,1.55,1.48,1.55Zm-.31-1.43h.29l.44,.77h.29l-.48-.79c.25-.03,.44-.17,.44-.49,0-.35-.2-.51-.6-.51h-.64v1.79h.26v-.77h0Zm0-.23v-.55h.35c.18,0,.37,.04,.37,.26,0,.27-.19,.29-.41,.29h-.3Zm-6.12,6.57h3.21v-2.37h-3.13v-1.95h3.42v-2.39h-6.3v5.78c-.9-1.61-3.95-1.21-4.26-2.55-.17-.72,.37-1.21,1.34-1.21s1.84,.69,1.84,.69l1-2.05s-1.19-.85-3.4-.87c-2.66-.03-3.77,2.29-3.74,3.53,0,.04,0,.09,0,.13-.8-2.08-2.8-3.61-5.18-3.8l-.03-.23s.63,.13,1.05,.1c.75-.06,2.49-1.58,4.19-1.56,1.44,.02,3.84,1.68,4.74,1.84,.71,.13,1.27-.2,1.27-.2,0,0-.5,.23-1.19-.02-.54-.2-3.03-2.49-5.1-2.41-2.07,.08-3.24,1.86-4.11,1.86-2.37-.08-1.99-6.28-6-6.4-3.69-.11-4.46,5.15-7.5,5.17-1.72,.01-2.55-1.03-2.71-.95-.16,.08,0,.26-.08,.3-.08,.04-.32,.1-.63,.24-.13,.07-.52,.38-.95,.62-.49,.28-1,.48-.93,.54,.14,.12,1.34-.2,2.25-.22s2.29,.89,4.31,.85c.2-.06,.18,.18,.06,.34-.08,.11-.27,.19-.38,.23-3.12,0-5.69,2.27-6.03,5.19h-4.74v2.18h2.67c-.5,1.13-1.52,1.9-2.7,1.9-1.67,0-3.02-1.55-3.02-3.45s1.35-3.45,3.02-3.45c1.09,0,2.03,.65,2.57,1.64l2.51-1.11c-1.01-1.75-2.91-2.93-5.08-2.93-2.52,0-4.67,1.59-5.5,3.82v-3.53h-2.81v6.71l-5.36-6.78h-2.79v3.59c-.83-2.27-3.08-3.91-5.72-3.91-3.05,0-5.57,2.17-6,5l-.8-4.62h-2.76l-2.31,5.92-2.31-5.92h-2.76l-1.9,11.02h2.7l1.14-6.3,2.53,6.3h1.21l2.53-6.3,1.14,6.3h2.7l-.49-2.84c1.01,1.88,3.04,3.16,5.39,3.16,2.65,0,4.89-1.63,5.72-3.91v3.59h2.75v-6.84l5.37,6.84h2.82v-3.41c.83,2.23,2.98,3.82,5.5,3.82,2.37,0,4.37-1.39,5.27-3.41,.96,2.03,3.07,3.44,5.53,3.44s4.74-1.53,5.64-3.69c.93,2.09,3.08,3.56,5.59,3.56,3.36,0,6.08-2.62,6.08-5.86,0-.04-.06-.36-.06-.4,1.42,1.29,4.32,1.36,4.37,2.63,.04,1.01-.69,1.34-1.58,1.26-1-.09-2.4-1.05-2.4-1.05l-1.19,2.19s1.16,1.19,3.9,1.19c2.33,0,3.41-1.35,3.78-1.99v1.72h6.3v-2.39h-3.5v-1.92h0Zm-59.91,1.97c-1.77,0-3.2-1.43-3.2-3.2,0-1.77,1.43-3.2,3.2-3.2h0c1.77,0,3.2,1.43,3.2,3.2,0,1.77-1.43,3.2-3.2,3.2h0Zm32.97,.12c-1.77,.04-3.23-1.35-3.27-3.12-.04-1.77,1.35-3.23,3.12-3.27,.05,0,.1,0,.15,0,1.77,.04,3.16,1.51,3.12,3.27-.04,1.71-1.41,3.08-3.12,3.12Zm5.59-5.49c-.86-1.95-2.79-3.35-5.07-3.54,.01,0,.12-.07,.25-.21,.14-.16-.06-.36,.06-.47,1.5,.12,2.51-2.7,5.47-2.73,2.65-.02,3.77,1.94,4.86,2.8-.73,.18-1.97,.34-1.92,.45,.5-.02,1-.01,1.49,.03-2.34,.18-4.31,1.65-5.14,3.67h0Zm5.64,5.37c-1.77,0-3.2-1.43-3.2-3.2,0-1.77,1.43-3.2,3.2-3.2,1.77,0,3.2,1.43,3.2,3.2s-1.43,3.2-3.2,3.2h0Z"/></g><g><polygon class="cls-12" points="294.13 417.82 366.35 417.82 402.47 355.27 366.35 292.72 294.13 292.72 258.02 355.27 294.13 417.82"/><text class="cls-19" transform="translate(287.73 399.31)"><tspan x="0" y="0">JsonWebToken</tspan></text><g><path class="cls-9" d="M333.83,314.67l-.05-12.79h-7.14l.05,12.79,3.57,4.9,3.57-4.9Zm-7.14,21.92v12.83h7.14v-12.83l-3.57-4.9-3.57,4.9Z"/><path class="cls-8" d="M333.83,336.59l7.52,10.37,5.75-4.18-7.52-10.37-5.75-1.86v6.04Zm-7.14-21.92l-7.56-10.37-5.75,4.18,7.52,10.36,5.8,1.86v-6.03Z"/><path class="cls-3" d="M320.9,318.85l-12.17-3.95-2.19,6.75,12.17,3.99,5.75-1.9-3.56-4.89Zm15.12,8.65l3.57,4.9,12.17,3.95,2.19-6.75-12.17-3.95-5.76,1.85Z"/><path class="cls-5" d="M341.77,325.66l12.17-3.99-2.19-6.75-12.17,3.95-3.57,4.9,5.76,1.89Zm-23.06,0l-12.17,3.95,2.19,6.75,12.17-3.95,3.57-4.9-5.76-1.85Z"/><path class="cls-7" d="M320.9,332.4l-7.52,10.37,5.75,4.18,7.56-10.37v-6.04l-5.8,1.86Zm18.68-13.55l7.52-10.37-5.75-4.18-7.52,10.36v6.04l5.75-1.85Z"/></g><path class="cls-33" d="M299.43,353.18v16.64c0,3.66-3,6.66-6.66,6.66v-3.33c1.86,0,3.33-1.48,3.33-3.33v-16.63h3.32Zm60.76,3.33h7.51v-3.32h-18.3v3.32h7.46v19.97h3.33v-19.97Zm-20.83-3.33v16.64c0,1.86-1.48,3.33-3.33,3.33s-3.33-1.48-3.33-3.33v-9.98c0-3.66-3-6.66-6.66-6.66s-6.66,3-6.66,6.66v9.99c0,1.86-1.48,3.33-3.33,3.33s-3.33-1.48-3.33-3.33v-16.64h-3.33v16.64c0,3.66,3,6.66,6.66,6.66s6.66-3,6.66-6.66v-9.98c0-1.86,1.48-3.33,3.33-3.33s3.33,1.48,3.33,3.33v9.99c0,3.66,3,6.66,6.66,6.66s6.66-3,6.66-6.66v-16.64h-3.32Z"/></g><g><polygon class="cls-12" points="608 153.45 535.78 153.45 499.67 216 535.78 278.55 608 278.55 644.12 216 608 153.45"/><text class="cls-19" transform="translate(549.72 260.04)"><tspan x="0" y="0">Express</tspan></text><path class="cls-15" d="M515.21,225.3v-12.78h15.96v-.75h-15.96v-11.66h16.97v-.75h-17.72v26.69h17.87v-.75h-17.12Zm31.51-18.46l-6.62,8.71-6.47-8.71h-.97l6.99,9.27-7.66,9.94h.9l7.21-9.38,7.25,9.38h.93l-7.7-9.94,7.03-9.27h-.9Zm3.81,25.79v-11.96h.07c.45,1.74,1.33,3.15,2.65,4.2,1.32,1.06,3,1.59,5.05,1.59,1.32,0,2.49-.27,3.51-.8s1.87-1.26,2.56-2.19c.69-.92,1.21-1.99,1.57-3.21,.36-1.22,.54-2.5,.54-3.85,0-1.45-.19-2.78-.56-4-.37-1.22-.92-2.28-1.63-3.18-.71-.9-1.57-1.59-2.58-2.09-1.01-.5-2.15-.75-3.42-.75-.97,0-1.87,.14-2.71,.43-.83,.29-1.58,.69-2.22,1.21-.65,.53-1.22,1.15-1.68,1.85-.47,.71-.83,1.49-1.08,2.34h-.07v-5.38h-.75v25.79h.75Zm7.77-6.88c-2.34,0-4.22-.8-5.64-2.41-1.42-1.61-2.13-3.92-2.13-6.93,0-1.25,.17-2.43,.52-3.55,.35-1.12,.85-2.11,1.51-2.95,.66-.85,1.48-1.52,2.45-2.02,.97-.5,2.07-.75,3.29-.75s2.34,.25,3.27,.75c.93,.5,1.71,1.18,2.32,2.04s1.07,1.84,1.38,2.95c.31,1.11,.47,2.29,.47,3.53,0,1.12-.14,2.24-.43,3.35-.29,1.11-.73,2.11-1.33,2.99-.6,.88-1.36,1.61-2.3,2.17-.93,.56-2.06,.84-3.38,.84h0Zm12.3,.3v-10.88c0-1.05,.15-2.07,.45-3.06,.3-1,.76-1.88,1.38-2.63,.62-.76,1.41-1.36,2.37-1.79,.96-.44,2.1-.62,3.42-.54v-.75c-1.15-.02-2.15,.1-3.01,.37-.86,.27-1.6,.65-2.22,1.12-.62,.47-1.12,1.03-1.49,1.66-.37,.63-.65,1.32-.82,2.04h-.07v-4.75h-.75v19.21h.75Zm8.56-9.46h16.07c.05-1.32-.08-2.59-.39-3.81-.31-1.22-.81-2.3-1.49-3.25-.69-.95-1.57-1.71-2.65-2.28s-2.37-.86-3.87-.86c-1.07,0-2.12,.22-3.14,.67-1.02,.45-1.92,1.1-2.69,1.96s-1.4,1.91-1.87,3.16c-.47,1.25-.71,2.67-.71,4.26,0,1.42,.16,2.75,.49,3.98s.82,2.3,1.49,3.21c.67,.91,1.54,1.61,2.6,2.11,1.06,.5,2.34,.74,3.83,.71,2.19,0,4.04-.62,5.53-1.85,1.5-1.23,2.38-2.97,2.65-5.21h-.75c-.32,2.12-1.15,3.71-2.49,4.77-1.33,1.06-3.01,1.59-5.03,1.59-1.37,0-2.53-.24-3.48-.71-.95-.47-1.72-1.12-2.32-1.94-.6-.82-1.04-1.79-1.33-2.9-.29-1.11-.44-2.31-.47-3.61h0Zm15.32-.75h-15.32c.07-1.35,.32-2.55,.75-3.63,.42-1.07,.98-1.99,1.66-2.75,.69-.76,1.48-1.34,2.39-1.74,.91-.4,1.89-.6,2.93-.6,1.25,0,2.34,.23,3.29,.69,.95,.46,1.74,1.09,2.37,1.89,.64,.8,1.11,1.73,1.44,2.78,.32,1.06,.49,2.17,.49,3.35h0Zm16.26-3.33h.75c0-2.14-.62-3.7-1.87-4.67-1.25-.97-2.94-1.46-5.08-1.46-1.2,0-2.21,.15-3.03,.45-.82,.3-1.49,.69-2.02,1.16-.52,.47-.9,1-1.12,1.57s-.34,1.12-.34,1.64c0,1.05,.19,1.88,.56,2.5,.37,.62,.96,1.11,1.76,1.46,.55,.25,1.17,.47,1.87,.67,.7,.2,1.51,.41,2.43,.64,.82,.2,1.63,.4,2.43,.6,.8,.2,1.5,.47,2.11,.8,.61,.34,1.11,.77,1.5,1.29,.39,.52,.58,1.21,.58,2.06s-.19,1.52-.58,2.09c-.38,.57-.89,1.05-1.48,1.4-.6,.36-1.26,.62-2,.78-.74,.16-1.45,.24-2.15,.24-2.27,0-4.01-.5-5.21-1.51-1.21-1.01-1.81-2.6-1.81-4.77h-.75c0,2.42,.65,4.19,1.96,5.31,1.31,1.12,3.25,1.68,5.81,1.68,.82,0,1.65-.09,2.49-.28,.83-.19,1.58-.49,2.24-.92,.65-.42,1.2-.98,1.61-1.64,.41-.67,.62-1.5,.62-2.47s-.18-1.67-.54-2.24c-.36-.57-.83-1.05-1.42-1.42-.59-.37-1.25-.67-1.98-.88-.74-.21-1.48-.42-2.22-.62-.91-.24-1.83-.48-2.75-.71-.78-.2-1.51-.44-2.19-.71-.65-.27-1.16-.67-1.55-1.18-.39-.51-.58-1.24-.58-2.19,0-.17,.05-.49,.15-.93,.1-.45,.34-.9,.71-1.36,.37-.46,.95-.87,1.72-1.23,.77-.36,1.83-.54,3.18-.54,.92,0,1.76,.1,2.52,.3,.76,.2,1.41,.52,1.96,.95,.55,.44,.97,.99,1.27,1.66,.3,.67,.45,1.5,.45,2.47h0Zm17.3,0h.75c0-2.14-.62-3.7-1.87-4.67s-2.94-1.46-5.08-1.46c-1.2,0-2.21,.15-3.03,.45-.82,.3-1.5,.69-2.02,1.16-.52,.47-.9,1-1.12,1.57s-.34,1.12-.34,1.64c0,1.05,.19,1.88,.56,2.5,.37,.62,.96,1.11,1.76,1.46,.55,.25,1.17,.47,1.87,.67,.7,.2,1.51,.41,2.43,.64,.82,.2,1.63,.4,2.43,.6,.8,.2,1.5,.47,2.11,.8,.61,.34,1.11,.77,1.49,1.29,.39,.52,.58,1.21,.58,2.06s-.19,1.52-.58,2.09c-.38,.57-.89,1.05-1.48,1.4-.6,.36-1.26,.62-2,.78-.73,.16-1.45,.24-2.15,.24-2.27,0-4.01-.5-5.21-1.51-1.21-1.01-1.81-2.6-1.81-4.77h-.75c0,2.42,.65,4.19,1.96,5.31,1.31,1.12,3.25,1.68,5.81,1.68,.82,0,1.65-.09,2.49-.28,.83-.19,1.58-.49,2.24-.92,.65-.42,1.2-.98,1.61-1.64,.41-.67,.62-1.5,.62-2.47s-.18-1.67-.54-2.24c-.36-.57-.83-1.05-1.42-1.42-.59-.37-1.25-.67-1.98-.88-.74-.21-1.48-.42-2.22-.62-.91-.24-1.83-.48-2.75-.71-.78-.2-1.51-.44-2.19-.71-.65-.27-1.16-.67-1.55-1.18-.39-.51-.58-1.24-.58-2.19,0-.17,.05-.49,.15-.93,.1-.45,.34-.9,.71-1.36,.37-.46,.95-.87,1.72-1.23,.77-.36,1.83-.54,3.18-.54,.92,0,1.76,.1,2.52,.3,.76,.2,1.41,.52,1.96,.95s.97,.99,1.27,1.66c.3,.67,.45,1.5,.45,2.47h0Z"/></g></g></svg>